#!OML:ASF E:\Steps\Project 1\Capture day 1\Session 2\Subject.ASF
:FULLY-SPECIFIED
:DEGREES
466
root 9.75844 16.318 1.92495 -157.625 0.384232 176.124
lowerback -21.7508 -0.506636 -8.18325
upperback 1.73878 1.56435 -1.80853
thorax 14.1419 0.0884095 3.10738
lowerneck -0.669765 -0.400825 -3.01853
upperneck 20.0753 -2.93987 5.13867
head 6.2877 -1.89608 1.91614
rclavicle -4.37326e-015 6.36111e-015
rhumerus -28.1792 -6.44836 -85.9797
rradius 39.2689
rwrist -6.4616
rhand -7.68095 -52.1198
rfingers 7.12502
rthumb 18.2158 -81.2869
lclavicle -4.37326e-015 6.36111e-015
lhumerus -32.7454 9.89666 77.3044
lradius 20.4727
lwrist -9.0937
lhand -18.272 -13.7014
lfingers 7.12502
lthumb 8.00785 16.1269
rfemur -17.3524 8.67575 18.4411
rtibia 12.9546
rfoot -20.5218 -7.32046
rtoes -27.7221
lfemur -71.3363 -6.83524 -18.3157
ltibia 60.7597
lfoot -7.91717 1.22216
ltoes -38.5272
467
root 9.74679 16.3145 1.8366 -157.296 0.454981 176.23
lowerback -21.9176 -0.413377 -8.15584
upperback 1.5655 1.67967 -1.86392
thorax 14.0209 0.148347 3.06839
lowerneck -1.23676 -0.521758 -3.28783
upperneck 20.8596 -3.23021 5.34173
head 6.65617 -2.05124 2.00313
rclavicle -1.33186e-014 -2.98177e-014
rhumerus -28.5263 -6.47977 -85.9993
rradius 39.3792
rwrist -6.56188
rhand -8.84684 -50.7693
rfingers 7.12502
rthumb 17.0939 -80.0373
lclavicle -1.33186e-014 -2.98177e-014
lhumerus -32.8499 9.86003 77.1509
lradius 20.4876
lwrist -9.11505
lhand -18.4385 -13.8072
lfingers 7.12502
lthumb 7.84717 16.0272
rfemur -17.4196 8.44063 18.509
rtibia 13.0112
rfoot -20.5287 -7.05061
rtoes -27.8474
lfemur -71.0718 -6.83959 -18.193
ltibia 60.4279
lfoot -7.63452 0.818582
ltoes -35.1627
468
root 9.73234 16.3129 1.74806 -157.091 0.595056 176.108
lowerback -22.1023 -0.399698 -8.34922
upperback 1.53166 1.76913 -1.98599
thorax 14.0775 0.172077 3.06891
lowerneck -1.80791 -0.564947 -3.42439
upperneck 21.4268 -3.36649 5.49333
head 6.95005 -2.11483 2.06079
rclavicle 5.96354e-015 -4.13472e-014
rhumerus -28.7038 -6.3419 -86.0888
rradius 39.5093
rwrist -6.41459
rhand -10.2956 -48.9577
rfingers 7.12502
rthumb 15.699 -78.3409
lclavicle 5.96354e-015 -4.13472e-014
lhumerus -33.1166 9.64109 77.0366
lradius 20.9475
lwrist -8.90629
lhand -18.1452 -12.9268
lfingers 7.12502
lthumb 8.13019 16.8968
rfemur -17.2009 8.13576 18.3607
rtibia 12.7577
rfoot -20.2832 -7.107
rtoes -29.8532
lfemur -70.5229 -6.89453 -18.432
ltibia 59.9631
lfoot -7.73721 0.481126
ltoes -25.2827
469
root 9.71896 16.3109 1.66218 -156.941 0.752063 176.065
lowerback -22.1915 -0.359971 -8.49668
upperback 1.48569 1.87002 -2.09935
thorax 14.0633 0.207979 3.05607
lowerneck -1.33717 -0.547506 -3.12283
upperneck 20.6003 -3.20712 5.33645
head 6.58758 -2.00967 1.9751
rclavicle -1.09332e-015 -5.60573e-014
rhumerus -28.85 -6.51347 -86.1636
rradius 39.5246
rwrist -6.0001
rhand -11.0886 -48.3376
rfingers 7.12502
rthumb 14.9351 -77.7791
lclavicle -1.09332e-015 -5.60573e-014
lhumerus -33.2834 9.72291 76.8339
lradius 21.0911
lwrist -8.80812
lhand -18.2405 -12.7319
lfingers 7.12502
lthumb 8.0382 17.0952
rfemur -16.9272 8.16602 18.2765
rtibia 12.504
rfoot -19.9972 -7.46319
rtoes -31.5159
lfemur -69.8564 -6.86545 -18.6598
ltibia 59.4197
lfoot -9.25396 0.707317
ltoes -23.7092
470
root 9.70666 16.3105 1.57649 -156.718 0.872242 176.124
lowerback -22.2903 -0.58674 -8.42025
upperback 1.34995 2.06092 -2.16503
thorax 13.974 0.519692 3.05634
lowerneck -1.31885 -0.574347 -3.07143
upperneck 20.7465 -3.2735 5.29798
head 6.63341 -2.04798 1.94947
rclavicle -7.95139e-015 6.04305e-014
rhumerus -29.0877 -6.79385 -86.1287
rradius 39.4777
rwrist -5.94945
rhand -10.3591 -49.8347
rfingers 7.12502
rthumb 15.6378 -79.2227
lclavicle -7.95139e-015 6.04305e-014
lhumerus -33.2789 10.162 76.5786
lradius 20.7852
lwrist -8.93465
lhand -18.4976 -13.4668
lfingers 7.12502
lthumb 7.7901 16.3697
rfemur -16.7758 8.40395 18.2725
rtibia 12.3531
rfoot -19.9613 -7.7192
rtoes -32.154
lfemur -69.3457 -6.76247 -18.8096
ltibia 59.0605
lfoot -10.2275 0.983386
ltoes -19.4181
471
root 9.69397 16.3139 1.48871 -156.505 0.90069 176.158
lowerback -22.4839 -0.597256 -8.51438
upperback 1.30304 2.10126 -2.17864
thorax 14.0246 0.533556 3.11215
lowerneck -1.67812 -0.63863 -3.16697
upperneck 21.3477 -3.44004 5.27695
head 6.89932 -2.14695 1.94321
rclavicle 1.59028e-015 -7.55382e-015
rhumerus -29.2027 -6.7899 -86.0748
rradius 39.2954
rwrist -6.06491
rhand -9.58745 -50.0226
rfingers 7.12502
rthumb 16.3809 -79.3509
lclavicle 1.59028e-015 -7.55382e-015
lhumerus -33.2933 10.3882 76.4675
lradius 20.7627
lwrist -8.91006
lhand -18.3958 -13.8827
lfingers 7.12502
lthumb 7.88832 15.9501
rfemur -16.6345 8.54386 18.2613
rtibia 12.3334
rfoot -20.0487 -7.7698
rtoes -32.1662
lfemur -68.9883 -6.6958 -19.027
ltibia 59.0581
lfoot -10.9568 1.27376
ltoes -24.8666
